<svg width="136" height="74" viewBox="0 0 136 74" fill="none" xmlns="http://www.w3.org/2000/svg">
<g clip-path="url(#clip0)">
<path d="M130.193 11.1291V10.5714H132.617V11.1291H131.733V13.3347H131.077V11.1291H130.193Z" fill="#0E3152"/>
<path d="M133.526 11.1291V13.3347H132.895V10.5714H133.904L134.435 12.5488L134.99 10.5714H136V13.3347H135.369V11.1038L134.737 13.3347H134.132L133.526 11.1291Z" fill="#0E3152"/>
<path d="M43.398 20.7372C43.6505 16.8839 45.241 15.0586 45.241 15.0586C47.3617 11.9404 51.5272 9.68414 57.2328 9.68414C65.1348 9.68414 70.2345 12.8784 70.083 21.3457L70.0578 38.3309H61.7519L61.6509 34.9846C59.6059 37.9253 56.2987 39.0154 52.3604 39.0154C47.1344 39.0154 42.8174 35.9226 42.8174 30.8523C42.8174 24.0329 50.4669 21.7766 61.2217 20.9908V19.9007C61.2217 16.6557 59.5807 15.4642 56.5512 15.4642C53.8246 15.4642 51.9059 16.7064 51.6282 20.7119L43.398 20.7372ZM55.4404 33.1847C58.8233 33.1847 61.3984 31.7396 61.3984 26.6441V25.9849C55.4909 26.492 51.5272 27.2778 51.5272 30.2186C51.5272 31.9931 53.2187 33.1847 55.4404 33.1847Z" fill="#0E3152"/>
<path d="M88.8909 9.91229C95.985 9.91229 97.8279 14.0952 97.8279 21.6245V38.2802H89.6987V23.754C89.6987 19.7739 89.5473 16.5289 85.4322 16.5289C81.8472 16.5289 80.282 18.9627 80.282 24.0582V38.3056H71.9761V10.5461H80.282V14.1966C81.5443 12.1432 84.5738 9.91229 88.8909 9.91229Z" fill="#0E3152"/>
<path d="M108.305 20.1035L116.99 10.5461H128.275L118.328 21.4471L128.174 38.1028L118.53 38.3056L112.446 27.8609L108.305 32.4241V38.3056H99.8228V0H108.305V20.1035Z" fill="#0E3152"/>
<path d="M41.6307 20.6612V10.394C41.2268 10.3433 40.7471 10.3433 40.3432 10.3433C36.3795 10.4954 34.0822 12.5488 33.1481 15.8191V10.5461H24.8169V38.3056H33.1228V26.3652C33.1228 22.0302 35.2182 20.6866 39.2828 20.6866H41.6307V20.6612Z" fill="#0E3152"/>
<path d="M63.847 46.925H0.0756836V55.1641H63.847V46.925Z" fill="#008F6D"/>
<path d="M124.838 47.3855L63.8667 66.142L66.2699 74.0194L127.242 55.263L124.838 47.3855Z" fill="#008F6D"/>
<path d="M25.1197 0.25351V8.61939H8.43215V15.5403H22.5446V23.8554H8.43215V38.3056H0V0.25351H25.1197Z" fill="#0E3152"/>
</g>
<defs>
<clipPath id="clip0">
<rect width="136" height="74" fill="white"/>
</clipPath>
</defs>
</svg>
